<svg viewBox="0 0 48 48" width="48" height="48">
    <title>gallery layout</title>
    <g>
        <path fill="#15b982"
              d="M9,2H3C2.44727,2,2,2.44775,2,3v6c0,0.55225,0.44727,1,1,1h6c0.55273,0,1-0.44775,1-1V3 C10,2.44775,9.55273,2,9,2z"></path>
        <path fill="#15b982"
              d="M21,2h-6c-0.55273,0-1,0.44775-1,1v6c0,0.55225,0.44727,1,1,1h6c0.55273,0,1-0.44775,1-1V3 C22,2.44775,21.55273,2,21,2z"></path>
        <path fill="#15b982"
              d="M33,2h-6c-0.55273,0-1,0.44775-1,1v6c0,0.55225,0.44727,1,1,1h6c0.55273,0,1-0.44775,1-1V3 C34,2.44775,33.55273,2,33,2z"></path>
        <path fill="#15b982"
              d="M45,2h-6c-0.55273,0-1,0.44775-1,1v6c0,0.55225,0.44727,1,1,1h6c0.55273,0,1-0.44775,1-1V3 C46,2.44775,45.55273,2,45,2z"></path>
        <path fill="#15b982"
              d="M9,14H3c-0.55273,0-1,0.44775-1,1v6c0,0.55225,0.44727,1,1,1h6c0.55273,0,1-0.44775,1-1v-6 C10,14.44775,9.55273,14,9,14z"></path>
        <path fill="#15b982"
              d="M21,14h-6c-0.55273,0-1,0.44775-1,1v6c0,0.55225,0.44727,1,1,1h6c0.55273,0,1-0.44775,1-1v-6 C22,14.44775,21.55273,14,21,14z"></path>
        <path fill="#15b982"
              d="M33,14h-6c-0.55273,0-1,0.44775-1,1v6c0,0.55225,0.44727,1,1,1h6c0.55273,0,1-0.44775,1-1v-6 C34,14.44775,33.55273,14,33,14z"></path>
        <path fill="#15b982"
              d="M45,14h-6c-0.55273,0-1,0.44775-1,1v6c0,0.55225,0.44727,1,1,1h6c0.55273,0,1-0.44775,1-1v-6 C46,14.44775,45.55273,14,45,14z"></path>
        <path fill="#15b982"
              d="M9,26H3c-0.55273,0-1,0.44775-1,1v6c0,0.55225,0.44727,1,1,1h6c0.55273,0,1-0.44775,1-1v-6 C10,26.44775,9.55273,26,9,26z"></path>
        <path fill="#15b982"
              d="M21,26h-6c-0.55273,0-1,0.44775-1,1v6c0,0.55225,0.44727,1,1,1h6c0.55273,0,1-0.44775,1-1v-6 C22,26.44775,21.55273,26,21,26z"></path>
        <path fill="#15b982"
              d="M33,26h-6c-0.55273,0-1,0.44775-1,1v6c0,0.55225,0.44727,1,1,1h6c0.55273,0,1-0.44775,1-1v-6 C34,26.44775,33.55273,26,33,26z"></path>
        <path fill="#15b982"
              d="M45,26h-6c-0.55273,0-1,0.44775-1,1v6c0,0.55225,0.44727,1,1,1h6c0.55273,0,1-0.44775,1-1v-6 C46,26.44775,45.55273,26,45,26z"></path>
        <path fill="#15b982"
              d="M9,38H3c-0.55273,0-1,0.44775-1,1v6c0,0.55225,0.44727,1,1,1h6c0.55273,0,1-0.44775,1-1v-6 C10,38.44775,9.55273,38,9,38z"></path>
        <path fill="#15b982"
              d="M21,38h-6c-0.55273,0-1,0.44775-1,1v6c0,0.55225,0.44727,1,1,1h6c0.55273,0,1-0.44775,1-1v-6 C22,38.44775,21.55273,38,21,38z"></path>
        <path fill="#15b982"
              d="M33,38h-6c-0.55273,0-1,0.44775-1,1v6c0,0.55225,0.44727,1,1,1h6c0.55273,0,1-0.44775,1-1v-6 C34,38.44775,33.55273,38,33,38z"></path>
        <path fill="#15b982"
              d="M45,38h-6c-0.55273,0-1,0.44775-1,1v6c0,0.55225,0.44727,1,1,1h6c0.55273,0,1-0.44775,1-1v-6 C46,38.44775,45.55273,38,45,38z"></path>
    </g>
</svg>