<svg version="1.1" viewBox="0 0 48 48" xml:space="preserve" width="48" height="48"><title>window paragraph</title><g><path fill="#444444" d="M45,45H3c-1.105,0-2-0.895-2-2V5c0-1.105,0.895-2,2-2h42c1.105,0,2,0.895,2,2v38C47,44.105,46.105,45,45,45z "></path> <rect x="3" y="10" fill="#FFFFFF" width="42" height="33"></rect> <circle fill="#E86C60" cx="4.5" cy="6.5" r="1.5"></circle> <circle fill="#EFD358" cx="9.5" cy="6.5" r="1.5"></circle> <circle fill="#72C472" cx="14.5" cy="6.5" r="1.5"></circle> <path fill="#43A6DD" d="M20,28H8c-0.552,0-1-0.447-1-1V15c0-0.553,0.448-1,1-1h12c0.552,0,1,0.447,1,1v12C21,27.553,20.552,28,20,28 z"></path> <path fill="#B3B3B3" d="M40,16H26c-0.552,0-1-0.447-1-1s0.448-1,1-1h14c0.552,0,1,0.447,1,1S40.552,16,40,16z"></path> <path fill="#B3B3B3" d="M40,22H26c-0.552,0-1-0.447-1-1s0.448-1,1-1h14c0.552,0,1,0.447,1,1S40.552,22,40,22z"></path> <path fill="#B3B3B3" d="M40,33H8c-0.552,0-1-0.447-1-1s0.448-1,1-1h32c0.552,0,1,0.447,1,1S40.552,33,40,33z"></path> <path fill="#B3B3B3" d="M32,39H8c-0.552,0-1-0.447-1-1s0.448-1,1-1h24c0.552,0,1,0.447,1,1S32.552,39,32,39z"></path> <path fill="#B3B3B3" d="M35,28h-9c-0.552,0-1-0.447-1-1s0.448-1,1-1h9c0.552,0,1,0.447,1,1S35.552,28,35,28z"></path></g></svg>