<svg version="1.1" viewBox="0 0 48 48" xml:space="preserve" width="48" height="48"><title>window code</title><g><path fill="#444444" d="M45,45H3c-1.105,0-2-0.895-2-2V5c0-1.105,0.895-2,2-2h42c1.105,0,2,0.895,2,2v38C47,44.105,46.105,45,45,45z "></path> <rect x="3" y="10" fill="#FFFFFF" width="42" height="33"></rect> <circle fill="#E86C60" cx="4.5" cy="6.5" r="1.5"></circle> <circle fill="#EFD358" cx="9.5" cy="6.5" r="1.5"></circle> <circle fill="#72C472" cx="14.5" cy="6.5" r="1.5"></circle> <path fill="#444444" d="M10,31c-0.256,0-0.512-0.098-0.707-0.293c-0.391-0.391-0.391-1.023,0-1.414L12.586,26l-3.293-3.293 c-0.391-0.391-0.391-1.023,0-1.414s1.023-0.391,1.414,0l4,4c0.391,0.391,0.391,1.023,0,1.414l-4,4C10.512,30.902,10.256,31,10,31z"></path> <path fill="#444444" d="M28,31h-8c-0.552,0-1-0.448-1-1s0.448-1,1-1h8c0.552,0,1,0.448,1,1S28.552,31,28,31z"></path></g></svg>