<svg version="1.1" viewBox="0 0 48 48" xml:space="preserve" width="48" height="48"><title>design</title><g><polygon fill="#223E49" points="39.472,43.839 40.655,40.655 43.839,39.472 44.93,44.93 "></polygon> <polygon fill="#EAD8C5" points="33.162,42.577 35.655,35.364 42.577,33.162 43.839,39.472 39.472,43.839 "></polygon> <path fill="#335262" d="M13.07,3.655l5.293,5.293l-3.707,5.707l-5.707,3.707L3.655,13.07c-0.781-0.781-0.781-2.047,0-2.828 l6.586-6.586C11.022,2.874,12.289,2.874,13.07,3.655z"></path> <rect x="23.58" y="6.787" transform="matrix(0.7071 -0.7071 0.7071 0.7071 -8.8175 26.5305)" fill="#E86C60" width="8.071" height="34.244"></rect> <rect x="20.08" y="10.994" transform="matrix(0.7071 -0.7071 0.7071 0.7071 -13.0247 24.7875)" fill="#DD5E58" width="6.657" height="34.244"></rect> <rect x="6.999" y="12.655" transform="matrix(0.7071 -0.7071 0.7071 0.7071 -5.6562 13.6554)" fill="#E6E6E6" width="13.314" height="2"></rect> <path fill="#EFD358" d="M45.213,12.686l-9.899-9.899c-0.781-0.781-2.047-0.781-2.828,0L2.787,32.485 c-0.781,0.781-0.781,2.047,0,2.828l9.899,9.899c0.781,0.781,2.047,0.781,2.828,0l29.698-29.698 C45.994,14.734,45.994,13.467,45.213,12.686z"></path> <rect x="30.778" y="5.151" transform="matrix(0.7071 -0.7071 0.7071 0.7071 2.837 25.1508)" fill="#CEB341" width="2" height="8"></rect> <rect x="24.061" y="11.247" transform="matrix(0.7071 -0.7071 0.7071 0.7071 -2.3805 21.747)" fill="#CEB341" width="2" height="5"></rect> <rect x="19.464" y="16.464" transform="matrix(0.7071 -0.7071 0.7071 0.7071 -8.4767 20.4645)" fill="#CEB341" width="2" height="8"></rect> <rect x="8.151" y="27.778" transform="matrix(0.7071 -0.7071 0.7071 0.7071 -19.7904 15.7782)" fill="#CEB341" width="2" height="8"></rect> <rect x="12.747" y="22.561" transform="matrix(0.7071 -0.7071 0.7071 0.7071 -13.6942 17.0607)" fill="#CEB341" width="2" height="5"></rect></g></svg>