<svg version="1.1" viewBox="0 0 48 48" xml:space="preserve" width="48" height="48"><title>lab</title><g><path fill="#E6E6E6" d="M19,9v14.6748L7.81152,39.05957c-1.1123,1.52832-1.26953,3.52441-0.41211,5.20898S9.96484,47,11.85547,47 h24.28906c1.89062,0,3.59863-1.04688,4.45605-2.73145s0.7002-3.68066-0.41211-5.20898L29,23.6748V9H19z"></path> <path fill="#E6E6E6" d="M32.125,9c0.55273,0,1-0.44727,1-1V2c0-0.55273-0.44727-1-1-1H16c-0.55273,0-1,0.44727-1,1v6 c0,0.55273,0.44727,1,1,1h3h10H32.125z"></path> <path fill="#72C472" d="M30.10834,32h-12.2168l-6.84564,9.41309c-0.22559,0.30957-0.25586,0.69922-0.08203,1.04102 C11.13867,42.7959,11.47168,43,11.85547,43h24.28906c0.38379,0,0.7168-0.2041,0.8916-0.5459 c0.17383-0.3418,0.14355-0.73145-0.08301-1.04199L30.10834,32z"></path> <rect x="19" y="9" fill="#D1D1D1" width="10" height="3"></rect> <circle fill="#9EDB9E" cx="20" cy="39" r="2"></circle> <circle fill="#9EDB9E" cx="27" cy="37" r="2"></circle></g></svg>